# xmcd CD database file
#
# Track frame offsets:
#	150
#	7475
#	30414
#	51492
#	68526
#	86007
#	98558
#	120379
#	142242
#	156142
#
# Disc length: 2401 seconds
#
# Revision: 0
# Processed by: cddbd v1.5.1PL0 Copyright (c) Steve Scherf et al.
# Submitted via: CDex 1.51
#
DISCID=82095f0a
DTITLE=Rolando - Brave Heart
DYEAR=1900
DGENRE=サウンドトラック (一般)
TTITLE0=Glorious Anthem - Puchi -Sprit- Loading
TTITLE1=Rising Waters - D! -Saver- Area01
TTITLE2=Volcanic Geyser - Ctrl+Z -Saver- Area02
TTITLE3=Gravestorm - Umeo -Sprit- Area04
TTITLE4=Undiscovered Paradise - AN -Saver- Area04
TTITLE5=Fault Line - Ma-Ko -Sprit- Area05
TTITLE6=Iceberg - SHO[harukaha] -Saver- Area06
TTITLE7=Hidden Horror - Hide -Sprit- Area09a
TTITLE8=Terminate - Fetimaro -Sprit- Ending
TTITLE9=Wings OF Hope - SHO[harukaha] -Sprit- Area01
EXTD=
EXTT0=
EXTT1=
EXTT2=
EXTT3=
EXTT4=
EXTT5=
EXTT6=
EXTT7=
EXTT8=
EXTT9=
PLAYORDER=
